<svg width="4124" height="10459" viewBox="0 0 4124 10459" fill="none" xmlns="http://www.w3.org/2000/svg">
<path d="M2301.07 3129.75C2154.73 3312.04 2050.55 3524.87 1996.08 3752.75C1943.22 3979.21 1969.47 4209.66 1967.5 4439.69C1967.89 4742.53 1888.46 4991.66 1676.17 5210.05C1508.07 5381.94 1308.77 5521.75 1154.8 5709C845.552 6085.26 755.259 6520.9 786.303 6999.34C821.479 7541.01 916.029 8054.04 629.282 8549.7C475.533 8815.71 278.859 9054.98 165.252 9343.92C62.3675 9625.63 8.0493 9922.95 4.6473 10223C2.71383 10256.2 65.0198 10270.1 67.7633 10233.4C79.4895 9947.59 132.6 9665.03 225.413 9394.66C318.587 9146.93 472.872 8933.65 614.399 8712.36C756.891 8504.69 852.719 8268.25 895.197 8019.52C920.047 7795.06 918.109 7568.44 889.428 7344.5C864.899 7084.47 832.194 6820.33 859.996 6559.71C890.754 6301.17 986.856 6054.87 1139.1 5844.36C1407.61 5465.73 1898.54 5252.07 2009.06 4768.55C2062.37 4534.24 2026.04 4291.09 2028.44 4053.82C2031.99 3724.56 2156.66 3431.43 2330.67 3158.12C2341.88 3141.21 2314.17 3111.14 2299.9 3129.08L2301.07 3129.75Z" fill="#37474F"/>
<path d="M2348.12 3673.93C2374.04 3579.75 2251.61 3266.77 2216.75 3256.26C2181.9 3245.76 1935.04 3448.8 1906.96 3548.91C1903.3 3568.98 1904.94 3589.67 1911.74 3608.88C1918.54 3628.1 1930.24 3645.16 1945.67 3658.36C1987.14 3696.6 2036.92 3724.51 2091.04 3739.86C2145.16 3755.21 2202.1 3757.58 2257.31 3746.77C2277.44 3743.68 2296.42 3735.33 2312.35 3722.55C2328.28 3709.77 2340.62 3693 2348.12 3673.93Z" fill="#5CA6D1"/>
<path opacity="0.1" d="M2348.12 3673.93C2374.04 3579.75 2251.61 3266.77 2216.75 3256.26C2181.9 3245.76 1935.04 3448.8 1906.96 3548.91C1903.3 3568.98 1904.94 3589.67 1911.74 3608.88C1918.54 3628.1 1930.24 3645.16 1945.67 3658.36C1987.14 3696.6 2036.92 3724.51 2091.04 3739.86C2145.16 3755.21 2202.1 3757.58 2257.31 3746.77C2277.44 3743.68 2296.42 3735.33 2312.35 3722.55C2328.28 3709.77 2340.62 3693 2348.12 3673.93Z" fill="#5CA6D1"/>
<path d="M3982.12 1937.05C3780.93 2656.33 2966.01 3406.48 2185.44 3370.71C1506.42 2953.86 1194.92 1923.7 1396.68 1205.06C1598.43 486.413 2246.17 -56.0576 3079.38 180.216C3912.59 416.49 4184.12 1214.18 3982.12 1937.05Z" fill="#5CA6D1"/>
<path opacity="0.05" d="M1347.04 1592.8C1347.04 1592.8 1346.34 2337.69 2178.5 2633.25C2980.63 2917.99 3898.74 2202.3 4042.22 1596.55C4033.65 1710.75 4013.77 1823.82 3982.89 1934.06C3781.7 2653.35 2966.78 3403.5 2186.21 3367.73C1623.24 3022.44 1313.83 2255.85 1338.58 1593.52L1347.04 1592.8Z" fill="black"/>
</svg>
