<svg width="3533" height="10271" viewBox="0 0 3533 10271" fill="none" xmlns="http://www.w3.org/2000/svg">
<path d="M1883.02 3025.38C1747.53 3215.88 1655.9 3434.4 1614.77 3665.06C1575.17 3894.21 1614.77 4122.75 1626.17 4352.5C1644.18 4654.8 1579.37 4908.14 1380.13 5138.49C1222.31 5319.87 1031.48 5471.03 888.654 5666.92C601.807 6060.52 536.996 6500.68 595.806 6976.5C662.416 7515.21 786.636 8021.87 529.194 8533.37C391.171 8807.86 208.742 9058.17 112.127 9353.22C25.796 9640.44 -11.1429 9940.42 2.90819 10240.2C2.90819 10273.4 65.9184 10283.7 66.5185 10246.8C61.6088 9960.86 98.2011 9675.69 175.136 9400.38C253.749 9147.65 395.372 8925.76 523.793 8696.61C653.97 8481.02 735.888 8239.4 763.832 7988.62C775.589 7763.1 760.479 7536.98 718.825 7315.08C679.218 7056.92 631.211 6795.12 643.813 6533.32C659.487 6273.44 741.104 6021.96 880.852 5802.96C1126.89 5409.36 1604.57 5167.51 1686.78 4678.38C1726.39 4441.38 1675.98 4200.74 1664.58 3963.74C1648.98 3634.83 1756.4 3334.94 1914.22 3051.99C1924.42 3034.45 1895.02 3006.04 1881.82 3024.78L1883.02 3025.38Z" fill="#37474F"/>
<path d="M1961.63 3565.9C1982.03 3470.38 1841.61 3165.05 1806.2 3156.58C1770.79 3148.12 1536.16 3365.17 1513.95 3466.75C1511.46 3487 1514.3 3507.55 1522.21 3526.34C1530.11 3545.13 1542.78 3561.49 1558.96 3573.76C1602.58 3609.52 1653.9 3634.49 1708.82 3646.67C1763.74 3658.85 1820.72 3657.9 1875.21 3643.9C1895.13 3639.65 1913.59 3630.21 1928.75 3616.52C1943.91 3602.83 1955.25 3585.38 1961.63 3565.9Z" fill="#F2C16E"/>
<path opacity="0.1" d="M1961.63 3565.9C1982.03 3470.38 1841.61 3165.05 1806.2 3156.58C1770.79 3148.12 1536.16 3365.17 1513.95 3466.75C1511.46 3487 1514.3 3507.55 1522.21 3526.34C1530.11 3545.13 1542.78 3561.49 1558.96 3573.76C1602.58 3609.52 1653.9 3634.49 1708.82 3646.67C1763.74 3658.85 1820.72 3657.9 1875.21 3643.9C1895.13 3639.65 1913.59 3630.21 1928.75 3616.52C1943.91 3602.83 1955.25 3585.38 1961.63 3565.9Z" fill="#F2C16E"/>
<path d="M3491.88 1736.95C3332.85 2466.72 2562.93 3262.99 1781.6 3272.66C1079.48 2895.99 708.623 1885.69 868.249 1156.53C1027.87 427.372 1642.98 -151.843 2488.51 35.5856C3334.05 223.014 3651.5 1003.56 3491.88 1736.95Z" fill="#F2C16E"/>
<path opacity="0.05" d="M841.242 1546.5C841.242 1546.5 883.849 2290.17 1731.79 2536.85C2549.12 2774.46 3424.06 2006.61 3532.08 1393.54C3530.16 1508.05 3516.89 1622.08 3492.48 1733.93C3333.45 2463.7 2563.52 3259.97 1782.2 3269.64C1200.1 2957.66 846.642 2210.36 832.84 1547.71L841.242 1546.5Z" fill="black"/>
</svg>
